<svg xmlns="http://www.w3.org/2000/svg" width="62" height="62" viewBox="0 0 62 62" fill="none">
  <g filter="url(#filter0_d_349_282)">
    <circle cx="30.5" cy="30.5" r="27.5" fill="#7875FF"/>
    <mask id="mask0_349_282" style="mask-type:alpha" maskUnits="userSpaceOnUse" x="0" y="0" width="60" height="60">
      <path d="M0 0H60V60H0V0Z" fill="#D9D9D9"/>
    </mask>
    <g mask="url(#mask0_349_282)">
      <path d="M16.6624 41.975C18.5749 40.5125 20.7124 39.3594 23.0749 38.5156C25.4374 37.6719 27.9124 37.25 30.4999 37.25C33.0874 37.25 35.5624 37.6719 37.9249 38.5156C40.2874 39.3594 42.4249 40.5125 44.3374 41.975C45.6499 40.4375 46.6718 38.6938 47.4031 36.7438C48.1343 34.7938 48.4999 32.7125 48.4999 30.5C48.4999 25.5125 46.7468 21.2656 43.2406 17.7594C39.7343 14.2531 35.4874 12.5 30.4999 12.5C25.5124 12.5 21.2656 14.2531 17.7593 17.7594C14.2531 21.2656 12.4999 25.5125 12.4999 30.5C12.4999 32.7125 12.8656 34.7938 13.5968 36.7438C14.3281 38.6938 15.3499 40.4375 16.6624 41.975ZM30.4999 32.75C28.2874 32.75 26.4218 31.9906 24.9031 30.4719C23.3843 28.9531 22.6249 27.0875 22.6249 24.875C22.6249 22.6625 23.3843 20.7969 24.9031 19.2781C26.4218 17.7594 28.2874 17 30.4999 17C32.7124 17 34.5781 17.7594 36.0968 19.2781C37.6156 20.7969 38.3749 22.6625 38.3749 24.875C38.3749 27.0875 37.6156 28.9531 36.0968 30.4719C34.5781 31.9906 32.7124 32.75 30.4999 32.75ZM30.4999 53C27.3874 53 24.4624 52.4094 21.7249 51.2281C18.9874 50.0469 16.6062 48.4438 14.5812 46.4188C12.5562 44.3938 10.9531 42.0125 9.77181 39.275C8.59056 36.5375 7.99994 33.6125 7.99994 30.5C7.99994 27.3875 8.59056 24.4625 9.77181 21.725C10.9531 18.9875 12.5562 16.6063 14.5812 14.5813C16.6062 12.5563 18.9874 10.9531 21.7249 9.77188C24.4624 8.59062 27.3874 8 30.4999 8C33.6124 8 36.5374 8.59062 39.2749 9.77188C42.0124 10.9531 44.3937 12.5563 46.4187 14.5813C48.4437 16.6063 50.0468 18.9875 51.2281 21.725C52.4093 24.4625 52.9999 27.3875 52.9999 30.5C52.9999 33.6125 52.4093 36.5375 51.2281 39.275C50.0468 42.0125 48.4437 44.3938 46.4187 46.4188C44.3937 48.4438 42.0124 50.0469 39.2749 51.2281C36.5374 52.4094 33.6124 53 30.4999 53ZM30.4999 48.5C32.4874 48.5 34.3624 48.2094 36.1249 47.6281C37.8874 47.0469 39.4999 46.2125 40.9624 45.125C39.4999 44.0375 37.8874 43.2031 36.1249 42.6219C34.3624 42.0406 32.4874 41.75 30.4999 41.75C28.5124 41.75 26.6374 42.0406 24.8749 42.6219C23.1124 43.2031 21.4999 44.0375 20.0374 45.125C21.4999 46.2125 23.1124 47.0469 24.8749 47.6281C26.6374 48.2094 28.5124 48.5 30.4999 48.5ZM30.4999 28.25C31.4749 28.25 32.2812 27.9312 32.9187 27.2938C33.5562 26.6562 33.8749 25.85 33.8749 24.875C33.8749 23.9 33.5562 23.0938 32.9187 22.4563C32.2812 21.8188 31.4749 21.5 30.4999 21.5C29.5249 21.5 28.7187 21.8188 28.0812 22.4563C27.4437 23.0938 27.1249 23.9 27.1249 24.875C27.1249 25.85 27.4437 26.6562 28.0812 27.2938C28.7187 27.9312 29.5249 28.25 30.4999 28.25Z" fill="white"/>
    </g>
  </g>
  <defs>
    <filter id="filter0_d_349_282" x="3" y="3" width="59" height="59" filterUnits="userSpaceOnUse" color-interpolation-filters="sRGB">
      <feFlood flood-opacity="0" result="BackgroundImageFix"/>
      <feColorMatrix in="SourceAlpha" type="matrix" values="0 0 0 0 0 0 0 0 0 0 0 0 0 0 0 0 0 0 127 0" result="hardAlpha"/>
      <feOffset dx="2" dy="2"/>
      <feGaussianBlur stdDeviation="1"/>
      <feComposite in2="hardAlpha" operator="out"/>
      <feColorMatrix type="matrix" values="0 0 0 0 0 0 0 0 0 0 0 0 0 0 0 0 0 0 0.25 0"/>
      <feBlend mode="normal" in2="BackgroundImageFix" result="effect1_dropShadow_349_282"/>
      <feBlend mode="normal" in="SourceGraphic" in2="effect1_dropShadow_349_282" result="shape"/>
    </filter>
  </defs>
</svg>
