<svg xmlns="http://www.w3.org/2000/svg" width="58" height="58" viewBox="0 0 58 58" fill="none">
  <g filter="url(#filter0_d_341_604)">
    <rect x="2" y="2" width="50" height="50" rx="15" fill="white"/>
    <mask id="mask0_341_604" style="mask-type:alpha" maskUnits="userSpaceOnUse" x="7" y="7" width="40" height="40">
      <rect x="7" y="7" width="40" height="40" fill="#D9D9D9"/>
    </mask>
    <g mask="url(#mask0_341_604)">
      <path d="M21 26.5C21.425 26.5 21.7812 26.3563 22.0688 26.0688C22.3562 25.7813 22.5 25.425 22.5 25C22.5 24.575 22.3562 24.2188 22.0688 23.9312C21.7812 23.6438 21.425 23.5 21 23.5C20.575 23.5 20.2188 23.6438 19.9312 23.9312C19.6437 24.2188 19.5 24.575 19.5 25C19.5 25.425 19.6437 25.7813 19.9312 26.0688C20.2188 26.3563 20.575 26.5 21 26.5ZM27 26.5C27.425 26.5 27.7813 26.3563 28.0688 26.0688C28.3563 25.7813 28.5 25.425 28.5 25C28.5 24.575 28.3563 24.2188 28.0688 23.9312C27.7813 23.6438 27.425 23.5 27 23.5C26.575 23.5 26.2188 23.6438 25.9313 23.9312C25.6438 24.2188 25.5 24.575 25.5 25C25.5 25.425 25.6438 25.7813 25.9313 26.0688C26.2188 26.3563 26.575 26.5 27 26.5ZM33 26.5C33.425 26.5 33.7812 26.3563 34.0688 26.0688C34.3563 25.7813 34.5 25.425 34.5 25C34.5 24.575 34.3563 24.2188 34.0688 23.9312C33.7812 23.6438 33.425 23.5 33 23.5C32.575 23.5 32.2188 23.6438 31.9313 23.9312C31.6438 24.2188 31.5 24.575 31.5 25C31.5 25.425 31.6438 25.7813 31.9313 26.0688C32.2188 26.3563 32.575 26.5 33 26.5ZM12 43V16C12 15.175 12.2938 14.4688 12.8813 13.8813C13.4688 13.2938 14.175 13 15 13H39C39.825 13 40.5312 13.2938 41.1188 13.8813C41.7063 14.4688 42 15.175 42 16V34C42 34.825 41.7063 35.5312 41.1188 36.1188C40.5312 36.7063 39.825 37 39 37H18L12 43ZM16.725 34H39V16H15V35.6875L16.725 34Z" fill="#7875FF"/>
    </g>
  </g>
  <defs>
    <filter id="filter0_d_341_604" x="0" y="0" width="58" height="58" filterUnits="userSpaceOnUse" color-interpolation-filters="sRGB">
      <feFlood flood-opacity="0" result="BackgroundImageFix"/>
      <feColorMatrix in="SourceAlpha" type="matrix" values="0 0 0 0 0 0 0 0 0 0 0 0 0 0 0 0 0 0 127 0" result="hardAlpha"/>
      <feOffset dx="2" dy="2"/>
      <feGaussianBlur stdDeviation="2"/>
      <feComposite in2="hardAlpha" operator="out"/>
      <feColorMatrix type="matrix" values="0 0 0 0 0 0 0 0 0 0 0 0 0 0 0 0 0 0 0.25 0"/>
      <feBlend mode="normal" in2="BackgroundImageFix" result="effect1_dropShadow_341_604"/>
      <feBlend mode="normal" in="SourceGraphic" in2="effect1_dropShadow_341_604" result="shape"/>
    </filter>
  </defs>
</svg>