<svg xmlns="http://www.w3.org/2000/svg" width="18" height="18" viewBox="0 0 18 18" fill="none">
  <mask id="mask0_341_429" style="mask-type:alpha" maskUnits="userSpaceOnUse" x="0" y="0" width="18" height="18">
    <rect width="18" height="18" fill="#7875FF"/>
  </mask>
  <g mask="url(#mask0_341_429)">
    <path d="M6.94118 13.2C6.48824 13.2 6.10049 13.0629 5.77794 12.7887C5.45539 12.5146 5.29412 12.185 5.29412 11.8V3.4C5.29412 3.015 5.45539 2.68542 5.77794 2.41125C6.10049 2.13708 6.48824 2 6.94118 2H14.3529C14.8059 2 15.1936 2.13708 15.5162 2.41125C15.8387 2.68542 16 3.015 16 3.4V11.8C16 12.185 15.8387 12.5146 15.5162 12.7887C15.1936 13.0629 14.8059 13.2 14.3529 13.2H6.94118ZM6.94118 11.8H14.3529V3.4H6.94118V11.8ZM3.64706 16C3.19412 16 2.80637 15.8629 2.48382 15.5887C2.16127 15.3146 2 14.985 2 14.6V4.8H3.64706V14.6H12.7059V16H3.64706Z" fill="#7875FF"/>
  </g>
</svg>