<svg xmlns="http://www.w3.org/2000/svg" width="24" height="24" viewBox="0 0 24 24" fill="none">
  <mask id="mask0_349_339" style="mask-type:alpha" maskUnits="userSpaceOnUse" x="0" y="0" width="24" height="24">
    <rect width="24" height="24" fill="#D9D9D9"/>
  </mask>
  <g mask="url(#mask0_349_339)">
    <path d="M3 21V19.2H21V21H3ZM6.6 15.6H7.86L17.4 6.06L16.14 4.8L6.6 14.34V15.6ZM4.8 17.4V13.575L14.88 3.5175C15.045 3.3525 15.2362 3.225 15.4538 3.135C15.6713 3.045 15.9 3 16.14 3C16.38 3 16.6125 3.045 16.8375 3.135C17.0625 3.225 17.265 3.36 17.445 3.54L18.6825 4.8C18.8625 4.965 18.9938 5.16 19.0763 5.385C19.1588 5.61 19.2 5.8425 19.2 6.0825C19.2 6.3075 19.1588 6.52875 19.0763 6.74625C18.9938 6.96375 18.8625 7.1625 18.6825 7.3425L8.625 17.4H4.8Z" fill="white"/>
  </g>
</svg>