<svg id="레이어_1" data-name="레이어 1" xmlns="http://www.w3.org/2000/svg" viewBox="0 0 100 100"><defs><style>.cls-1{fill:#7875ff;}</style></defs><title>대지 1</title><polygon points="3.5 6.41 48.06 6.41 48.06 14.16 15.13 14.16 15.13 39.34 38.38 39.34 38.38 31.59 26.75 31.59 26.75 23.84 48.06 23.84 48.06 47.09 3.5 47.09 3.5 6.41"/><path d="M50,6.41V47.09H61.63V31.59H96.5V6.41ZM88.75,23.84H61.63V14.16H88.75Z"/><polygon class="cls-1" points="3.5 49.03 48.06 49.03 48.06 56.78 15.13 56.78 15.13 85.84 38.38 85.84 38.38 74.22 26.75 74.22 26.75 66.47 48.06 66.47 48.06 93.59 3.5 93.59 3.5 49.03"/><polygon points="50 49.03 96.5 49.03 96.5 76.16 63.56 76.16 63.56 85.84 84.88 85.84 84.88 80.03 96.5 80.03 96.5 93.59 50 93.59 50 66.47 82.94 66.47 82.94 56.78 50 56.78 50 49.03"/></svg>