<svg xmlns="http://www.w3.org/2000/svg" width="58" height="58" viewBox="0 0 58 58" fill="none">
  <g filter="url(#filter0_d_341_524)">
    <rect x="2" y="2" width="50" height="50" rx="15" fill="transparent"/>
    <mask id="mask0_341_524" style="mask-type:alpha" maskUnits="userSpaceOnUse" x="7" y="8" width="40" height="40">
      <rect x="7" y="8" width="40" height="40" fill="currentColor"/>
    </mask>
    <g mask="url(#mask0_341_524)">
      <path d="M27 31.3334C25.6111 31.3334 24.4305 30.8473 23.4583 29.875C22.4861 28.9028 22 27.7223 22 26.3334V16.3334C22 14.9445 22.4861 13.7639 23.4583 12.7917C24.4305 11.8195 25.6111 11.3334 27 11.3334C28.3889 11.3334 29.5694 11.8195 30.5416 12.7917C31.5139 13.7639 32 14.9445 32 16.3334V26.3334C32 27.7223 31.5139 28.9028 30.5416 29.875C29.5694 30.8473 28.3889 31.3334 27 31.3334ZM25.3333 43V37.875C22.4444 37.4862 20.0555 36.1945 18.1666 34C16.2778 31.8056 15.3333 29.25 15.3333 26.3334H18.6666C18.6666 28.6389 19.4791 30.6042 21.1041 32.2292C22.7291 33.8542 24.6944 34.6667 27 34.6667C29.3055 34.6667 31.2708 33.8542 32.8958 32.2292C34.5208 30.6042 35.3333 28.6389 35.3333 26.3334H38.6666C38.6666 29.25 37.7222 31.8056 35.8333 34C33.9444 36.1945 31.5555 37.4862 28.6666 37.875V43H25.3333ZM27 28C27.4722 28 27.868 27.8403 28.1875 27.5209C28.5069 27.2014 28.6666 26.8056 28.6666 26.3334V16.3334C28.6666 15.8612 28.5069 15.4653 28.1875 15.1459C27.868 14.8264 27.4722 14.6667 27 14.6667C26.5278 14.6667 26.1319 14.8264 25.8125 15.1459C25.493 15.4653 25.3333 15.8612 25.3333 16.3334V26.3334C25.3333 26.8056 25.493 27.2014 25.8125 27.5209C26.1319 27.8403 26.5278 28 27 28Z" fill="currentColor"/>
    </g>
  </g>
  <defs>
    <filter id="filter0_d_341_524" x="0" y="0" width="58" height="58" filterUnits="userSpaceOnUse" color-interpolation-filters="sRGB">
      <feFlood flood-opacity="0" result="BackgroundImageFix"/>
      <feColorMatrix in="SourceAlpha" type="matrix" values="0 0 0 0 0 0 0 0 0 0 0 0 0 0 0 0 0 0 127 0" result="hardAlpha"/>
      <feOffset dx="2" dy="2"/>
      <feGaussianBlur stdDeviation="2"/>
      <feComposite in2="hardAlpha" operator="out"/>
      <feColorMatrix type="matrix" values="0 0 0 0 0 0 0 0 0 0 0 0 0 0 0 0 0 0 0.25 0"/>
      <feBlend mode="normal" in2="BackgroundImageFix" result="effect1_dropShadow_341_524"/>
      <feBlend mode="normal" in="SourceGraphic" in2="effect1_dropShadow_341_524" result="shape"/>
    </filter>
  </defs>
</svg>