<svg xmlns="http://www.w3.org/2000/svg" width="20" height="20" viewBox="0 0 20 20" fill="none">
  <mask id="mask0_343_80" style="mask-type:alpha" maskUnits="userSpaceOnUse" x="0" y="0" width="20" height="20">
    <rect width="20" height="20" fill="#D9D9D9"/>
  </mask>
  <g mask="url(#mask0_343_80)">
    <path d="M9.16667 18.2917C8.11112 18.1806 7.12848 17.8924 6.21876 17.4271C5.30903 16.9618 4.51737 16.3576 3.84376 15.6146C3.17014 14.8715 2.63889 14.0208 2.25001 13.0625C1.86112 12.1042 1.66667 11.0833 1.66667 10C1.66667 8.73611 1.92014 7.56945 2.42709 6.5C2.93403 5.43056 3.62501 4.51389 4.50001 3.75H2.50001V2.08334H7.50001V7.08334H5.83334V4.8125C5.06945 5.42361 4.46181 6.17709 4.01042 7.07292C3.55903 7.96875 3.33334 8.94445 3.33334 10C3.33334 11.7083 3.89237 13.184 5.01042 14.4271C6.12848 15.6701 7.51389 16.3958 9.16667 16.6042V18.2917ZM12.5 17.9167V12.9167H14.1667V15.1875C14.9306 14.5625 15.5382 13.8056 15.9896 12.9167C16.441 12.0278 16.6667 11.0556 16.6667 10C16.6667 8.29167 16.1076 6.81598 14.9896 5.57292C13.8715 4.32986 12.4861 3.60417 10.8333 3.39584V1.70834C12.9445 1.91667 14.7222 2.80556 16.1667 4.375C17.6111 5.94445 18.3333 7.81945 18.3333 10C18.3333 11.2639 18.0799 12.4306 17.5729 13.5C17.066 14.5694 16.375 15.4861 15.5 16.25H17.5V17.9167H12.5Z" fill="#1C1B1F"/>
  </g>
</svg>