<svg xmlns="http://www.w3.org/2000/svg" width="18" height="18" viewBox="0 0 18 18" fill="none">
  <mask id="mask0_341_436" style="mask-type:alpha" maskUnits="userSpaceOnUse" x="0" y="0" width="18" height="18">
    <rect width="18" height="18" fill="#7875FF"/>
  </mask>
  <g mask="url(#mask0_341_436)">
    <path d="M9 16C8.02778 16 7.11713 15.8417 6.26806 15.525C5.41898 15.2083 4.68009 14.7806 4.05139 14.2417C3.42269 13.7028 2.92361 13.0694 2.55417 12.3417C2.18472 11.6139 2 10.8333 2 10H3.55556C3.55556 11.3 4.0838 12.4028 5.14028 13.3083C6.19676 14.2139 7.48333 14.6667 9 14.6667C10.5167 14.6667 11.8032 14.2139 12.8597 13.3083C13.9162 12.4028 14.4444 11.3 14.4444 10C14.4444 8.7 13.9162 7.59722 12.8597 6.69167C11.8032 5.78611 10.5167 5.33333 9 5.33333H8.88333L10.0889 6.36667L9 7.33333L5.88889 4.66667L9 2L10.0889 2.96667L8.88333 4H9C9.97222 4 10.8829 4.15833 11.7319 4.475C12.581 4.79167 13.3199 5.21944 13.9486 5.75833C14.5773 6.29722 15.0764 6.93056 15.4458 7.65833C15.8153 8.38611 16 9.16667 16 10C16 10.8333 15.8153 11.6139 15.4458 12.3417C15.0764 13.0694 14.5773 13.7028 13.9486 14.2417C13.3199 14.7806 12.581 15.2083 11.7319 15.525C10.8829 15.8417 9.97222 16 9 16Z" fill="#7875FF"/>
  </g>
</svg>